<?xml version="1.0" encoding="UTF-8" standalone="no"?>
<!DOCTYPE svg PUBLIC "-//W3C//DTD SVG 1.1//EN" "http://www.w3.org/Graphics/SVG/1.1/DTD/svg11.dtd">
<svg width="100%" height="100%" viewBox="0 0 1280 624" version="1.1" xmlns="http://www.w3.org/2000/svg" xmlns:xlink="http://www.w3.org/1999/xlink" xml:space="preserve" xmlns:serif="http://www.serif.com/" style="fill-rule:evenodd;clip-rule:evenodd;stroke-linejoin:round;stroke-miterlimit:2;">
    <g transform="matrix(1.12424,0,0,1.12424,735.06,-78.9889)">
        <path d="M257.122,302.094C257.122,302.094 193.583,368.667 200.901,419.891C200.901,419.891 216.429,457.64 253.909,439.256C253.909,439.256 249.804,461.923 258.372,466.028C258.372,466.028 251.411,471.606 252.303,474.819C252.303,474.819 255.516,479.459 258.193,478.924C258.193,478.924 254.498,494.225 257.697,498.68C257.697,498.68 271.404,511.359 273.917,519.698C276.43,528.036 284.083,535.033 291.965,532.063C291.965,532.063 293.11,535.638 301.498,533.854C301.498,533.854 303.997,540.1 311.315,534.389C311.315,534.389 312.931,546.533 325.432,537.98C325.432,537.98 331.646,535.786 334.205,541.123C334.205,541.123 354.804,548.918 366.684,535.851C366.684,535.851 380.848,542.796 389.712,530.825C389.712,530.825 405.064,537.587 399.124,526.256C399.124,526.256 420.599,516.386 402.597,508.984C402.597,508.984 401.614,499.024 415.596,510.903C415.596,510.903 421.17,527.443 439.812,530.368L509.617,531.09C509.617,531.09 514.614,530.019 513.365,526.45C513.365,526.45 523.538,529.484 523.181,523.416C523.181,523.416 548.525,509.137 539.78,503.069C539.78,503.069 548.347,499.856 546.384,495.751C544.42,491.646 546.639,496.544 546.639,496.544C546.639,496.544 552.988,471.835 547.99,464.338C547.99,464.338 547.098,436.719 537.817,419.941C537.817,419.941 571.43,396.682 551.868,368.982C551.868,368.982 540.088,314.323 470.369,278.157C400.65,241.99 270.026,297.708 257.122,302.094Z" style="fill:rgb(168,132,105);"/>
        <g transform="matrix(1.04137,0,0,1.0136,-9.96341,-5.56444)">
            <path d="M280.618,263.05C280.618,263.05 269.731,264.3 259.022,261.444C259.022,261.444 261.521,284.468 256.166,300.175C256.166,300.175 273.657,312.802 288.114,305.127C288.114,305.127 261.521,361.572 240.817,379.242L267.946,409.048C267.946,409.048 330.771,335.754 315.065,304.815C315.065,304.815 329.401,299.656 326.773,294.173" style="fill:rgb(255,219,228);"/>
        </g>
        <g transform="matrix(1,0,0,1.07121,0,-28.4953)">
            <path d="M339.819,302.236C339.819,302.236 327.504,320.441 324.291,319.013C324.291,319.013 335.357,353.545 330.002,397.902L371.231,400.137C371.231,400.137 374.265,364.708 366.412,337.579C366.412,337.579 377.657,350.073 392.649,349.359C392.649,349.359 407.998,309.736 412.817,311.521L404.964,309.915" style="fill:rgb(255,219,228);"/>
        </g>
        <g transform="matrix(1,0,0,1,-9.27415,6.67547)">
            <ellipse cx="335.274" cy="299.753" rx="13.525" ry="12.355" style="fill:rgb(255,219,228);"/>
        </g>
        <path d="M320.121,286.327C320.121,286.327 339.254,314.027 366.098,303.175C366.098,303.175 388.933,329.162 429.209,295.608C469.485,262.053 467.645,237.861 467.645,237.861L436.053,194.847L329.857,198.417L305.405,252.14L320.121,286.327Z" style="fill:rgb(212,189,171);"/>
        <path d="M320.192,286.506C320.192,286.506 236.488,269.029 272.219,171.093C272.219,171.093 227.338,131.888 260.454,103.224C260.454,103.224 290.085,65.409 333.224,105.934C333.224,105.934 415.144,76.739 459.59,126.414C459.59,126.414 501.857,98.962 528.437,153.866C528.437,153.866 545.431,195.697 498.807,210.948C498.807,210.948 496.192,292.977 429.087,296.463C429.087,296.463 456.144,245.999 423.66,231.363C423.66,231.363 432.585,220.476 424.731,216.193C424.731,216.193 420.448,215.3 415.986,222.796C415.986,222.796 390.106,192.098 358.158,212.801C358.158,212.801 352.625,203.52 345.843,209.767C345.843,209.767 342.63,213.515 343.166,222.618C343.166,222.618 300.252,231.984 320.192,286.506Z" style="fill:rgb(168,132,105);"/>
        <path d="M342.774,222.048C342.774,222.048 342.701,208.231 348.842,207.939C348.842,207.939 353.082,205.819 358.273,212.91C363.463,220.001 346.722,228.043 342.774,222.048Z"/>
        <g transform="matrix(1.14602,0,0,1,-60.7444,0)">
            <path d="M416.066,223.023C416.066,223.023 421.83,212.28 426.621,217.595C426.621,217.595 431.749,220.814 423.739,231.313C423.739,231.313 415.28,232.446 416.066,223.023Z"/>
        </g>
        <path d="M380.399,272.019C380.399,272.019 367.057,268.912 366.6,256.118C366.6,256.118 364.864,240.126 380.582,248.259C380.582,248.259 397.853,242.411 395.386,257.124C395.386,257.124 394.746,268.455 380.399,272.019Z" style="fill:rgb(227,173,173);"/>
        <g transform="matrix(1.07081,0.19521,-0.225029,1.23438,55.0516,-187.559)">
            <ellipse cx="378.203" cy="475.193" rx="45.317" ry="43.792" style="fill:rgb(212,189,171);"/>
        </g>
        <g transform="matrix(1.07267,-0.184722,0.212939,1.23653,-27.2309,-54.9949)">
            <ellipse cx="378.203" cy="475.193" rx="45.317" ry="43.792" style="fill:rgb(212,189,171);"/>
        </g>
        <path d="M286.281,156.159C286.281,156.159 267.987,140.988 282.266,128.048C282.266,128.048 295.206,113.101 308.145,128.495L286.281,156.159Z" style="fill:rgb(212,189,171);"/>
        <path d="M485.399,152.701C485.399,152.701 493.877,144.892 500.57,157.832C500.57,157.832 505.924,170.103 498.116,175.234L485.399,152.701Z" style="fill:rgb(212,189,171);"/>
    </g>
</svg>
